<svg width="477" height="150" viewBox="0 0 477 150" fill="none" xmlns="http://www.w3.org/2000/svg">
<rect x="2" y="2" width="473" height="146" rx="14" fill="white"/>
<rect x="2" y="2" width="473" height="146" rx="14" stroke="#0F0F0F" stroke-width="4"/>
<circle cx="95.5" cy="75.5" r="36.5" fill="black"/>
<g clip-path="url(#clip0_36_2420)">
<mask id="mask0_36_2420" style="mask-type:luminance" maskUnits="userSpaceOnUse" x="76" y="56" width="39" height="40">
<path d="M114.961 56H76V96H114.961V56Z" fill="white"/>
</mask>
<g mask="url(#mask0_36_2420)">
<path d="M99.1871 72.9286L113.691 56H110.254L97.6603 70.6988L87.6016 56H76L91.2108 78.2273L76 95.9795H79.4372L92.7367 80.457L103.359 95.9795H114.961L99.1863 72.9286H99.1871ZM94.4794 78.4231L92.9382 76.2098L80.6757 58.598H85.955L95.851 72.8113L97.3922 75.0246L110.256 93.4996H104.976L94.4794 78.4239V78.4231Z" fill="white"/>
</g>
</g>
<path d="M186.152 58.64V63.104H177.272V92H171.8V63.104H162.872V58.64H186.152ZM227.214 65.552L219.006 92H213.246L207.918 72.464L202.59 92H196.83L188.574 65.552H194.142L199.662 86.816L205.278 65.552H210.99L216.366 86.72L221.838 65.552H227.214ZM234.087 62.048C233.095 62.048 232.263 61.712 231.591 61.04C230.919 60.368 230.583 59.536 230.583 58.544C230.583 57.552 230.919 56.72 231.591 56.048C232.263 55.376 233.095 55.04 234.087 55.04C235.047 55.04 235.863 55.376 236.535 56.048C237.207 56.72 237.543 57.552 237.543 58.544C237.543 59.536 237.207 60.368 236.535 61.04C235.863 61.712 235.047 62.048 234.087 62.048ZM236.775 65.552V92H231.303V65.552H236.775ZM250.343 70.016V84.656C250.343 85.648 250.567 86.368 251.015 86.816C251.495 87.232 252.295 87.44 253.415 87.44H256.775V92H252.455C249.991 92 248.103 91.424 246.791 90.272C245.479 89.12 244.823 87.248 244.823 84.656V70.016H241.703V65.552H244.823V58.976H250.343V65.552H256.775V70.016H250.343ZM268.203 70.016V84.656C268.203 85.648 268.427 86.368 268.875 86.816C269.355 87.232 270.155 87.44 271.275 87.44H274.635V92H270.315C267.851 92 265.963 91.424 264.651 90.272C263.339 89.12 262.683 87.248 262.683 84.656V70.016H259.563V65.552H262.683V58.976H268.203V65.552H274.635V70.016H268.203ZM303.918 78.128C303.918 79.12 303.854 80.016 303.726 80.816H283.518C283.678 82.928 284.462 84.624 285.87 85.904C287.278 87.184 289.006 87.824 291.054 87.824C293.998 87.824 296.078 86.592 297.294 84.128H303.198C302.398 86.56 300.942 88.56 298.83 90.128C296.75 91.664 294.158 92.432 291.054 92.432C288.526 92.432 286.254 91.872 284.238 90.752C282.254 89.6 280.686 88 279.534 85.952C278.414 83.872 277.854 81.472 277.854 78.752C277.854 76.032 278.398 73.648 279.486 71.6C280.606 69.52 282.158 67.92 284.142 66.8C286.158 65.68 288.462 65.12 291.054 65.12C293.55 65.12 295.774 65.664 297.726 66.752C299.678 67.84 301.198 69.376 302.286 71.36C303.374 73.312 303.918 75.568 303.918 78.128ZM298.206 76.4C298.174 74.384 297.454 72.768 296.046 71.552C294.638 70.336 292.894 69.728 290.814 69.728C288.926 69.728 287.31 70.336 285.966 71.552C284.622 72.736 283.822 74.352 283.566 76.4H298.206ZM314.775 69.392C315.575 68.048 316.631 67.008 317.943 66.272C319.287 65.504 320.871 65.12 322.695 65.12V70.784H321.303C319.159 70.784 317.527 71.328 316.407 72.416C315.319 73.504 314.775 75.392 314.775 78.08V92H309.303V65.552H314.775V69.392Z" fill="#0F0F0F"/>
<defs>
<clipPath id="clip0_36_2420">
<rect width="38.961" height="40" fill="white" transform="translate(76 56)"/>
</clipPath>
</defs>
</svg>
