<?xml version="1.0" encoding="UTF-8"?>
<svg width="24px" height="24px" viewBox="0 0 24 24" version="1.1" xmlns="http://www.w3.org/2000/svg">
    <path d="M16.6 5.82s.51.5 0 0A4.278 4.278 0 0 1 15.54 3h-3.09v12.4a2.592 2.592 0 0 1-2.59 2.5c-1.42 0-2.6-1.16-2.6-2.6 0-1.72 1.66-3.01 3.37-2.48V9.66c-3.45-.46-6.47 2.22-6.47 5.64 0 3.33 2.76 5.7 5.69 5.7 3.14 0 5.69-2.55 5.69-5.7V9.01a7.35 7.35 0 0 0 4.3 1.38V7.3s-1.88.09-3.24-1.48z" fill="currentColor"/>
    <path d="M19.75 5.82v2.09a7.35 7.35 0 0 1-4.3-1.38v5.99c0 3.15-2.55 5.7-5.69 5.7-2.93 0-5.69-2.37-5.69-5.7 0-3.42 3.02-6.1 6.47-5.64v3.16c-1.71-.53-3.37.76-3.37 2.48 0 1.44 1.18 2.6 2.6 2.6.06 0 .12 0 .18-.01a2.592 2.592 0 0 0 2.41-2.49V3h3.09c.24.75.72 1.39 1.36 1.84.55.38 1.17.56 1.82.56.07 0 .14 0 .21-.01.65-.05 1.24-.31 1.71-.76z" fill="currentColor"/>
</svg>
